<svg width="48" height="48" viewBox="0 0 48 48" xmlns="http://www.w3.org/2000/svg">
  <!-- File Base -->
  <path d="M10,4 L28,4 L38,14 L38,44 L10,44 Z" fill="#FFFFFF" />
  
  <!-- File Corner Fold -->
  <path d="M28,4 L38,14 L28,14 Z" fill="#DDDDDD" />
  
  <!-- File Outline -->
  <path d="M10,4 L28,4 L38,14 L38,44 L10,44 Z" fill="none" stroke="#121212" stroke-width="1.5" />
  <path d="M28,4 L28,14 L38,14" fill="none" stroke="#121212" stroke-width="1.5" />
  
  <!-- Zipper -->
  <rect x="19" y="20" width="10" height="20" fill="#F5DEB3" />
  <line x1="24" y1="20" x2="24" y2="40" stroke="#121212" stroke-width="1" />
  
  <!-- Zipper Teeth -->
  <line x1="19" y1="22" x2="29" y2="22" stroke="#121212" stroke-width="1" />
  <line x1="19" y1="25" x2="29" y2="25" stroke="#121212" stroke-width="1" />
  <line x1="19" y1="28" x2="29" y2="28" stroke="#121212" stroke-width="1" />
  <line x1="19" y1="31" x2="29" y2="31" stroke="#121212" stroke-width="1" />
  <line x1="19" y1="34" x2="29" y2="34" stroke="#121212" stroke-width="1" />
  <line x1="19" y1="37" x2="29" y2="37" stroke="#121212" stroke-width="1" />
  
  <!-- ZIP Label -->
  <rect x="17" y="14" width="14" height="6" fill="#FFAA44" rx="1" ry="1" />
  <text x="24" y="19" font-family="Arial" font-size="5" font-weight="bold" fill="#FFFFFF" text-anchor="middle">ZIP</text>
</svg>