<svg width="48" height="48" viewBox="0 0 48 48" xmlns="http://www.w3.org/2000/svg">
  <!-- File Base -->
  <path d="M10,4 L28,4 L38,14 L38,44 L10,44 Z" fill="#FFFFFF" />
  
  <!-- File Corner Fold -->
  <path d="M28,4 L38,14 L28,14 Z" fill="#DDDDDD" />
  
  <!-- File Outline -->
  <path d="M10,4 L28,4 L38,14 L38,44 L10,44 Z" fill="none" stroke="#121212" stroke-width="1.5" />
  <path d="M28,4 L28,14 L38,14" fill="none" stroke="#121212" stroke-width="1.5" />
  
  <!-- Audio Note -->
  <circle cx="24" cy="28" r="10" fill="#9370DB" opacity="0.7" />
  <path d="M21,24 L21,32 L24,32 L28,36 L28,20 L24,24 Z" fill="#121212" />
  
  <!-- Sound Waves -->
  <path d="M31,24 C32.5,25.5 33,27 33,28 C33,29 32.5,30.5 31,32" fill="none" stroke="#121212" stroke-width="1.5" stroke-linecap="round" />
  <path d="M33,22 C35,24 36,26 36,28 C36,30 35,32 33,34" fill="none" stroke="#121212" stroke-width="1.5" stroke-linecap="round" />
</svg>