<svg width="96" height="96" viewBox="0 0 96 96" xmlns="http://www.w3.org/2000/svg">
  <!-- Folder Base -->
  <path d="M10,24 L38,24 L48,34 L80,34 C83,34 86,36 86,40 L86,74 C86,78 83,80 80,80 L10,80 C7,80 4,78 4,74 L4,30 C4,26 7,24 10,24 Z" fill="#1DB954" opacity="0.5" />
  
  <!-- Folder Highlight -->
  <path d="M10,24 L38,24 L48,34 L80,34 C83,34 86,36 86,40 L86,74 C86,78 83,80 80,80 L10,80 C7,80 4,78 4,74 L4,30 C4,26 7,24 10,24 Z" fill="#1DB954" opacity="0.4" />
  
  <!-- Folder Front -->
  <path d="M10,30 L80,30 C83,30 86,32 86,36 L86,74 C86,78 83,80 80,80 L10,80 C7,80 4,78 4,74 L4,36 C4,32 7,30 10,30 Z" fill="#1DB954" opacity="0.5" />
  
  <!-- Empty Icon -->
  <circle cx="48" cy="55" r="15" fill="#FFFFFF" opacity="0.9" />
  <line x1="40" y1="55" x2="56" y2="55" stroke="#121212" stroke-width="3" />
</svg>