<svg width="48" height="48" viewBox="0 0 48 48" xmlns="http://www.w3.org/2000/svg">
  <!-- Folder Base -->
  <path d="M5,12 L19,12 L24,17 L40,17 C41.5,17 43,18 43,20 L43,37 C43,39 41.5,40 40,40 L5,40 C3.5,40 2,39 2,37 L2,15 C2,13 3.5,12 5,12 Z" fill="#1DB954" />
  
  <!-- Folder Highlight -->
  <path d="M5,12 L19,12 L24,17 L40,17 C41.5,17 43,18 43,20 L43,37 C43,39 41.5,40 40,40 L5,40 C3.5,40 2,39 2,37 L2,15 C2,13 3.5,12 5,12 Z" fill="#1DB954" opacity="0.8" />
  
  <!-- Folder Front -->
  <path d="M5,15 L40,15 C41.5,15 43,16 43,18 L43,37 C43,39 41.5,40 40,40 L5,40 C3.5,40 2,39 2,37 L2,18 C2,16 3.5,15 5,15 Z" fill="#1DB954" opacity="0.9" />
</svg>