<svg width="48" height="48" viewBox="0 0 48 48" xmlns="http://www.w3.org/2000/svg">
  <!-- File Base -->
  <path d="M10,4 L28,4 L38,14 L38,44 L10,44 Z" fill="#FFFFFF" />
  
  <!-- File Corner Fold -->
  <path d="M28,4 L38,14 L28,14 Z" fill="#DDDDDD" />
  
  <!-- File Outline -->
  <path d="M10,4 L28,4 L38,14 L38,44 L10,44 Z" fill="none" stroke="#121212" stroke-width="1.5" />
  <path d="M28,4 L28,14 L38,14" fill="none" stroke="#121212" stroke-width="1.5" />
  
  <!-- Video Screen -->
  <rect x="14" y="20" width="20" height="14" rx="2" ry="2" fill="#40E0D0" />
  
  <!-- Play Button -->
  <polygon points="21,24 21,30 27,27" fill="#121212" />
  
  <!-- Film Strip Top -->
  <rect x="14" y="18" width="20" height="2" fill="#121212" />
  <rect x="16" y="18" width="2" height="2" fill="#FFFFFF" />
  <rect x="20" y="18" width="2" height="2" fill="#FFFFFF" />
  <rect x="24" y="18" width="2" height="2" fill="#FFFFFF" />
  <rect x="28" y="18" width="2" height="2" fill="#FFFFFF" />
  
  <!-- Film Strip Bottom -->
  <rect x="14" y="34" width="20" height="2" fill="#121212" />
  <rect x="16" y="34" width="2" height="2" fill="#FFFFFF" />
  <rect x="20" y="34" width="2" height="2" fill="#FFFFFF" />
  <rect x="24" y="34" width="2" height="2" fill="#FFFFFF" />
  <rect x="28" y="34" width="2" height="2" fill="#FFFFFF" />
</svg>